<svg xmlns="http://www.w3.org/2000/svg" width="111" height="83" viewBox="0 0 111 83" fill="none">
  <g clip-path="url(#clip0_4041_1082)">
    <path d="M42.6086 81.0248C42.6086 82.0805 42.4845 82.3136 41.4786 82.4232V82.7797H45.3922V82.4232C44.5102 82.3136 44.3311 82.0805 44.3311 81.0248V76.4594C44.8134 75.8562 45.4473 75.2804 46.343 75.2804C47.2387 75.2804 47.9002 75.9247 47.9002 77.1586V81.0248C47.9002 82.0805 47.7348 82.3136 46.8391 82.4232V82.7797H50.7389V82.4232C49.7467 82.3136 49.6227 82.0805 49.6227 81.0248V77.1312C49.6227 75.1158 48.5065 74.1287 47.0458 74.1287C45.8469 74.1287 45.0477 74.8279 44.3862 75.7328H44.3173V69.9746H44.2484L41.3408 70.6738V71.0166C42.3467 71.0577 42.5948 71.2633 42.5948 72.1271V81.0385L42.6086 81.0248ZM37.3032 82.9991C38.8328 82.9991 39.9076 82.1627 40.7896 80.8192L40.5002 80.545C39.8112 81.2442 38.9844 81.5869 37.9508 81.5869C36.2834 81.5869 34.9605 80.3942 34.9605 78.0635C34.9605 76.3086 35.8838 74.7731 37.4961 74.7731C38.5985 74.7731 39.2875 75.5957 39.6045 76.8296H39.949V74.636C39.3151 74.3344 38.4745 74.1287 37.5788 74.1287C35.057 74.1287 33.2104 76.1304 33.2104 78.7078C33.2104 81.2853 34.9605 82.9991 37.3032 82.9991ZM31.1572 74.2384H31.0607L28.1669 74.9376V75.2804C29.159 75.3215 29.4209 75.5271 29.4209 76.4046V81.0385C29.4209 82.0942 29.2968 82.3273 28.2909 82.4369V82.7934H32.2596V82.4369C31.295 82.3273 31.1434 82.0942 31.1434 81.0385V74.2384H31.1572ZM30.2614 72.7989C30.8953 72.7989 31.4052 72.2779 31.4052 71.6198C31.4052 70.9891 30.8816 70.4819 30.2614 70.4819C29.6 70.4819 29.0901 71.0029 29.0901 71.6198C29.0901 72.2779 29.6 72.7989 30.2614 72.7989ZM22.0209 81.0797C22.0209 82.1216 21.8831 82.3136 20.8909 82.4232V82.7797H24.9836V82.4232C23.9088 82.3136 23.7434 82.1353 23.7434 81.0797V77.9538C24.267 76.4457 25.149 75.8288 26.1549 75.8288C26.4443 75.8288 26.6924 75.8836 26.9128 75.9521V74.2384C26.7337 74.1699 26.5408 74.1287 26.3065 74.1287C25.2454 74.1287 24.3773 74.8279 23.8398 76.9393H23.7434V74.2384H23.6469L20.7531 74.9376V75.2804C21.7453 75.3215 22.0071 75.5271 22.0071 76.4046V81.0934L22.0209 81.0797ZM14.235 82.9991C15.4339 82.9991 16.2607 82.2176 16.8257 81.4224H16.8946V82.9031H16.9635L19.7471 82.2039V81.8611C18.8101 81.82 18.6171 81.6281 18.6171 80.7232V74.3618H15.7233V74.7045C16.6603 74.8142 16.8946 75.1158 16.8946 76.1167V80.6547C16.3709 81.3127 15.7233 81.8474 14.9654 81.8474C14.2074 81.8474 13.6149 81.3264 13.6149 80.1474V74.3481H10.6797V74.6908C11.6719 74.8142 11.8786 75.1021 11.8786 76.103V80.2022C11.8786 82.0942 12.9397 82.9853 14.2212 82.9853M16.8257 72.744C17.432 72.744 17.9419 72.2642 17.9419 71.6198C17.9419 71.0166 17.432 70.523 16.8257 70.523C16.2194 70.523 15.7095 71.0029 15.7095 71.6198C15.7095 72.2642 16.1918 72.744 16.8257 72.744ZM13.5184 72.744C14.1248 72.744 14.6346 72.2642 14.6346 71.6198C14.6346 71.0166 14.1248 70.523 13.5184 70.523C12.9121 70.523 12.4022 71.0029 12.4022 71.6198C12.4022 72.2642 12.8845 72.744 13.5184 72.744ZM9.72886 82.7797V78.8038H9.37058C8.97095 81.491 7.84097 82.149 5.78771 82.149H2.42533V82.0805L9.81155 70.7835V70.3585H0.413408V73.9231H0.757914C1.15754 71.7569 2.06704 70.9891 4.02384 70.9891H7.4V71.0577L0 82.3547V82.7797H9.72886Z" fill="black"/>
    <path d="M107.169 51.4391C108.285 51.4391 108.878 52.4262 108.878 53.7423H105.061C105.281 52.2891 106.067 51.4391 107.169 51.4391ZM110.683 57.2247C109.966 57.9376 109.14 58.2666 108.092 58.2666C106.301 58.2666 105.006 56.9916 105.006 54.5649V54.3456H110.6V53.9754C110.6 51.8504 109.14 50.8084 107.334 50.8084C105.047 50.8084 103.366 52.7552 103.366 55.2779C103.366 57.9924 105.212 59.6787 107.431 59.6787C109.016 59.6787 110.09 58.8561 111.014 57.4989L110.711 57.2247H110.683ZM98.8596 59.665C100.582 59.665 101.946 58.6094 101.946 56.9779C101.946 55.9359 101.395 55.1956 100.251 54.6746L98.9009 54.0714C97.9776 53.6601 97.6194 53.2625 97.6194 52.673C97.6194 51.9189 98.3222 51.4528 99.1765 51.4528C100.251 51.4528 100.968 52.056 101.34 53.3448H101.698V51.3294C101.051 51.0141 100.224 50.7947 99.3557 50.7947C97.5642 50.7947 96.2827 51.9326 96.2827 53.3996C96.2827 54.4141 96.8339 55.2093 97.9776 55.744L99.3143 56.3746C100.251 56.8271 100.596 57.1835 100.596 57.7456C100.596 58.5682 99.838 59.0207 98.9836 59.0207C97.8812 59.0207 97.0957 58.3215 96.5583 56.8408H96.2138V58.9384C96.9166 59.3908 97.9087 59.665 98.8596 59.665ZM92.7687 51.3705C93.9952 51.5899 93.8849 52.1794 93.5266 53.0294L91.8316 57.3343H91.7765L89.9438 53.002C89.5717 52.0834 89.4339 51.5762 90.7292 51.3568V51.0141H86.4711V51.3568C87.3944 51.6036 87.67 52.0697 88.111 53.098L90.9359 59.665L90.7706 60.0626C90.2883 61.2965 89.3512 61.6941 88.3866 61.6941C87.9181 61.6941 87.4358 61.5981 87.0223 61.4062V63.0103C87.3393 63.1748 87.7527 63.2845 88.2075 63.2845C89.1721 63.2845 90.3296 62.8595 91.0875 60.9126L94.1192 53.1802C94.4912 52.2342 94.822 51.6036 95.8693 51.3705V51.0278H92.7825V51.3705H92.7687ZM82.1303 59.4594H86.0991V59.1029C85.1069 58.9932 84.9691 58.7602 84.9691 57.7045V46.6543H84.9002L81.9925 47.3535V47.6963C82.9985 47.7374 83.2466 47.943 83.2466 48.8205V57.7045C83.2466 58.7602 83.1225 58.9932 82.1303 59.1029V59.4594ZM76.4942 58.4723C75.8879 58.4723 75.3505 58.061 75.3505 57.3069C75.3505 56.498 76.0395 56.1142 77.0454 55.7166L78.2443 55.2641V57.4577C77.7207 58.0336 77.1695 58.4586 76.4942 58.4586M79.9669 53.8657C79.9669 51.7544 78.7404 50.8084 77.1419 50.8084C75.7776 50.8084 74.4685 51.6996 73.6555 52.5907L73.9311 52.906C74.7028 52.3165 75.5709 51.9463 76.4529 51.9463C77.5691 51.9463 78.2443 52.577 78.2443 53.8794V54.7569L76.5218 55.2916C74.7441 55.8674 73.5866 56.4021 73.5866 57.7182C73.5866 58.8561 74.4547 59.665 75.5847 59.665C76.5907 59.665 77.4175 59.1852 78.1616 58.1158H78.2581V59.5828H78.327L81.0968 58.8836V58.5408C80.0909 58.4997 79.9806 58.2392 79.9806 57.3618V53.852L79.9669 53.8657ZM64.3263 57.7045C64.3263 58.7602 64.1885 58.9932 63.1963 59.1029V59.4594H67.1099V59.1029C66.2141 58.9932 66.0488 58.7602 66.0488 57.7045V53.1391C66.5724 52.481 67.2339 51.96 68.0607 51.96C68.9564 51.96 69.6179 52.5633 69.6179 53.8383V57.7045C69.6179 58.7602 69.4525 58.9932 68.5568 59.1029V59.4594H72.4566V59.1029C71.4644 58.9932 71.3404 58.7602 71.3404 57.7045V53.8109C71.3404 51.7681 70.2242 50.8084 68.7635 50.8084C67.5922 50.8084 66.8067 51.4528 66.1039 52.4125H66.035V50.9044H65.9385L63.0447 51.6036V51.9463C64.0093 51.9875 64.2987 52.1931 64.2987 53.0568V57.7045H64.3263ZM57.5601 58.4723C56.9538 58.4723 56.4164 58.061 56.4164 57.3069C56.4164 56.498 57.1054 56.1142 58.1114 55.7166L59.3102 55.2641V57.4577C58.7866 58.0336 58.2354 58.4586 57.5601 58.4586M61.0328 53.8657C61.0328 51.7544 59.8063 50.8084 58.2078 50.8084C56.8436 50.8084 55.5344 51.6996 54.7214 52.5907L54.997 52.906C55.7687 52.3165 56.6369 51.9463 57.5188 51.9463C58.635 51.9463 59.3102 52.577 59.3102 53.8794V54.7569L57.5877 55.2916C55.8101 55.8674 54.6525 56.4021 54.6525 57.7182C54.6525 58.8561 55.5207 59.665 56.6507 59.665C57.6566 59.665 58.4834 59.1852 59.2276 58.1158H59.324V59.5828H59.3929L62.1628 58.8836V58.5408C61.1568 58.4997 61.0466 58.2392 61.0466 57.3618V53.852L61.0328 53.8657ZM49.0577 59.007C47.6246 59.007 46.7426 57.6085 46.7426 55.2367C46.7426 52.8649 47.6384 51.4665 49.0577 51.4665C50.4771 51.4665 51.359 52.8375 51.359 55.2367C51.359 57.636 50.4357 59.007 49.0577 59.007ZM49.0577 59.665C51.5795 59.665 53.3296 57.8416 53.3296 55.2367C53.3296 52.6318 51.5657 50.8084 49.0577 50.8084C46.5497 50.8084 44.7583 52.6318 44.7583 55.2367C44.7583 57.8416 46.5359 59.665 49.0577 59.665ZM35.8976 57.7045C35.8976 58.7602 35.7736 58.9932 34.7676 59.1029V59.4594H38.6812V59.1029C37.7993 58.9932 37.6201 58.7602 37.6201 57.7045V53.1391C38.1024 52.5359 38.7363 51.96 39.632 51.96C40.5277 51.96 41.1892 52.6044 41.1892 53.8383V57.7045C41.1892 58.7602 41.0238 58.9932 40.1281 59.1029V59.4594H44.0279V59.1029C43.0358 58.9932 42.9117 58.7602 42.9117 57.7045V53.8109C42.9117 51.7955 41.7955 50.8084 40.3348 50.8084C39.1359 50.8084 38.3367 51.5076 37.6752 52.4125H37.6063V46.6543H37.5374L34.6298 47.3535V47.6963C35.6357 47.7374 35.8838 47.943 35.8838 48.8068V57.7182L35.8976 57.7045ZM30.5922 59.665C32.1218 59.665 33.1966 58.8287 34.0786 57.4852L33.7892 57.211C33.1002 57.9102 32.2734 58.2529 31.2398 58.2529C29.5724 58.2529 28.2495 57.0601 28.2495 54.7295C28.2495 52.9746 29.1728 51.4391 30.7851 51.4391C31.8875 51.4391 32.5765 52.2617 32.8935 53.4956H33.238V51.302C32.6041 51.0003 31.7635 50.7947 30.8678 50.7947C28.346 50.7947 26.4994 52.7964 26.4994 55.3738C26.4994 57.9513 28.2495 59.665 30.5922 59.665ZM23.454 51.3705C24.6804 51.5899 24.5702 52.1794 24.2119 53.0294L22.5169 57.3343H22.4618L20.629 53.002C20.257 52.0834 20.1192 51.5762 21.4145 51.3568V51.0141H17.1564V51.3568C18.0797 51.6036 18.3553 52.0697 18.7963 53.098L21.6212 59.665L21.4559 60.0626C20.9736 61.2965 20.0365 61.6941 19.0719 61.6941C18.6034 61.6941 18.121 61.5981 17.7076 61.4062V63.0103C18.0246 63.1748 18.438 63.2845 18.8927 63.2845C19.8574 63.2845 21.0149 62.8595 21.7728 60.9126L24.8045 53.1802C25.1765 52.2342 25.5073 51.6036 26.5546 51.3705V51.0278H23.4678V51.3705H23.454ZM13.0637 59.665C14.7862 59.665 16.1505 58.6094 16.1505 56.9779C16.1505 55.9359 15.5993 55.1956 14.4555 54.6746L13.105 54.0714C12.1818 53.6601 11.8235 53.2625 11.8235 52.673C11.8235 51.9189 12.5263 51.4528 13.3806 51.4528C14.4555 51.4528 15.1721 52.056 15.5441 53.3448H15.9024V51.3294C15.2547 51.0141 14.4279 50.7947 13.5598 50.7947C11.7683 50.7947 10.4868 51.9326 10.4868 53.3996C10.4868 54.4141 11.038 55.2093 12.1818 55.744L13.5184 56.3746C14.4555 56.8271 14.8 57.1835 14.8 57.7456C14.8 58.5682 14.0421 59.0207 13.1877 59.0207C12.0853 59.0207 11.2998 58.3215 10.7624 56.8408H10.4179V58.9384C11.1207 59.3908 12.1128 59.665 13.0637 59.665ZM4.60261 47.6551C6.47672 47.6551 7.68938 48.6422 7.68938 50.5753C7.68938 52.5084 6.46294 53.523 4.60261 53.523H3.59665V47.6551H4.60261ZM5.05736 54.1262C7.84097 54.1262 9.79776 52.7826 9.79776 50.5616C9.79776 48.3406 7.84097 47.0245 5.05736 47.0245H0V47.3809C1.36425 47.4906 1.69497 47.7922 1.69497 49.1906V57.2795C1.69497 58.6916 1.37803 58.9795 0 59.1029V59.4594H5.55345V59.1029C3.99628 58.9795 3.59665 58.6916 3.59665 57.2795V54.1262H5.05736Z" fill="black"/>
    <path d="M38.3229 34.3988C38.3229 35.4408 38.1989 35.6464 37.1929 35.7698V36.1263H41.079V35.7698C40.2108 35.6464 40.0592 35.4271 40.0592 34.3988V29.806C40.5277 29.2028 41.203 28.6407 42.0022 28.6407C42.9255 28.6407 43.4216 29.2713 43.4216 30.4641V34.4125C43.4216 35.4682 43.2287 35.6601 42.4019 35.7698V36.1263H46.1639V35.7698C45.3233 35.6601 45.1579 35.4682 45.1579 34.4125V29.8197C45.6402 29.1753 46.2879 28.6407 47.0596 28.6407C47.9415 28.6407 48.4652 29.2302 48.4652 30.4229V34.3714C48.4652 35.4271 48.2998 35.6601 47.4592 35.7698V36.1263H51.3177V35.7698C50.3255 35.6601 50.2015 35.4271 50.2015 34.3714V30.2996C50.2015 28.4624 49.0991 27.4753 47.7624 27.4753C46.5635 27.4753 45.7367 28.2431 45.1028 29.1753H45.0339C44.7583 28.1608 43.9315 27.4753 42.829 27.4753C41.7266 27.4753 40.8033 28.1334 40.1557 29.0794H40.0868V27.5713H39.9903L37.0965 28.2705V28.6132C38.0886 28.6544 38.3505 28.86 38.3505 29.7375V34.3851L38.3229 34.3988ZM30.5371 36.3456C31.7359 36.3456 32.5628 35.5642 33.1277 34.769H33.1966V36.2497H33.2655L36.0492 35.5505V35.2077C35.1121 35.1666 34.9192 34.9747 34.9192 34.0698V27.7084H32.0253V28.0511C32.9624 28.1608 33.1966 28.4624 33.1966 29.4633V34.0012C32.673 34.6593 32.0253 35.194 31.2674 35.194C30.5095 35.194 29.9169 34.673 29.9169 33.494V27.6947H26.9817V28.0374C27.9739 28.1608 28.1806 28.4487 28.1806 29.4495V33.5488C28.1806 35.4408 29.2417 36.3319 30.5233 36.3319M20.8495 34.4263C20.8495 35.4682 20.7117 35.6601 19.7196 35.7698V36.1263H23.8123V35.7698C22.7374 35.6601 22.5721 35.4819 22.5721 34.4263V31.3004C23.0957 29.7923 23.9776 29.1753 24.9836 29.1753C25.273 29.1753 25.521 29.2302 25.7415 29.2987V27.585C25.5624 27.5164 25.3695 27.4753 25.1352 27.4753C24.0741 27.4753 23.206 28.1745 22.6685 30.2859H22.5721V27.585H22.4756L19.5817 28.2842V28.6269C20.5739 28.6681 20.8358 28.8737 20.8358 29.7512V34.44L20.8495 34.4263ZM14.3452 35.6876C12.9121 35.6876 12.0302 34.2892 12.0302 31.9173C12.0302 29.5455 12.9259 28.1471 14.3452 28.1471C15.7646 28.1471 16.6466 29.5181 16.6466 31.9173C16.6466 34.3166 15.7233 35.6876 14.3452 35.6876ZM14.3452 36.3456C16.867 36.3456 18.6171 34.5222 18.6171 31.9173C18.6171 29.3124 16.8533 27.489 14.3452 27.489C11.8372 27.489 10.0458 29.3124 10.0458 31.9173C10.0458 34.5222 11.8235 36.3456 14.3452 36.3456ZM0 36.1263H5.53966V35.7698C3.99627 35.6464 3.59665 35.3585 3.59665 33.9464V30.2584H5.11248C6.80745 30.2584 7.45512 30.848 7.57914 32.1778H7.93743V27.7221H7.57914C7.45512 29.052 6.80745 29.6415 5.11248 29.6415H3.59665V24.3357H5.91173C7.93743 24.3357 8.76425 25.0624 8.97095 26.9269H9.34302V23.7051H0V24.0615C1.35047 24.1712 1.69497 24.4591 1.69497 25.8712V33.9601C1.69497 35.3722 1.35047 35.6601 0 35.7835V36.14V36.1263Z" fill="black"/>
    <path d="M106.067 13.0244C107.789 13.0244 109.153 11.9688 109.153 10.3373C109.153 9.29534 108.602 8.55501 107.459 8.03403L106.108 7.43079C105.185 7.01949 104.826 6.6219 104.826 6.03238C104.826 5.27833 105.529 4.81219 106.384 4.81219C107.459 4.81219 108.175 5.41543 108.547 6.70416H108.905V4.6888C108.258 4.37347 107.431 4.15411 106.563 4.15411C104.771 4.15411 103.49 5.29204 103.49 6.759C103.49 7.77354 104.041 8.56871 105.185 9.1034L106.521 9.73406C107.459 10.1865 107.803 10.5429 107.803 11.1051C107.803 11.9277 107.045 12.3801 106.191 12.3801C105.088 12.3801 104.303 11.6809 103.765 10.2002H103.421V12.2978C104.124 12.7502 105.116 13.0244 106.067 13.0244ZM98.1155 4.79848C99.2317 4.79848 99.8243 5.7856 99.8243 7.10175H96.0071C96.2276 5.6485 97.0131 4.79848 98.1155 4.79848ZM101.629 10.5704C100.913 11.2833 100.086 11.6123 99.0388 11.6123C97.2474 11.6123 95.952 10.3373 95.952 7.91064V7.69128H101.547V7.32111C101.547 5.19607 100.086 4.15411 98.2809 4.15411C95.9933 4.15411 94.3122 6.10092 94.3122 8.62355C94.3122 11.3381 96.1587 13.0244 98.3773 13.0244C99.9621 13.0244 101.037 12.2018 101.96 10.8446L101.657 10.5704H101.629ZM85.2447 11.0502C85.2447 12.1059 85.1207 12.3389 84.1148 12.4486V12.8051H88.0284V12.4486C87.1464 12.3389 86.9673 12.1059 86.9673 11.0502V6.4848C87.4496 5.88157 88.0835 5.30575 88.9792 5.30575C89.8749 5.30575 90.5364 5.95012 90.5364 7.18401V11.0502C90.5364 12.1059 90.371 12.3389 89.4753 12.4486V12.8051H93.3751V12.4486C92.3829 12.3389 92.2589 12.1059 92.2589 11.0502V7.15659C92.2589 5.14123 91.1427 4.15411 89.682 4.15411C88.4831 4.15411 87.6839 4.85332 87.0224 5.75818H86.9535V0H86.8846L83.977 0.699207V1.04196C84.9829 1.08309 85.231 1.28873 85.231 2.15246V11.0639L85.2447 11.0502ZM79.8567 13.0244C81.3863 13.0244 82.4611 12.1881 83.3431 10.8446L83.0537 10.5704C82.3647 11.2696 81.5378 11.6123 80.5043 11.6123C78.8369 11.6123 77.514 10.4196 77.514 8.08887C77.514 6.33399 78.4373 4.79848 80.0496 4.79848C81.152 4.79848 81.841 5.62108 82.158 6.85497H82.5025V4.66138C81.8686 4.35976 81.028 4.15411 80.1323 4.15411C77.6105 4.15411 75.7639 6.15576 75.7639 8.73323C75.7639 11.3107 77.514 13.0244 79.8567 13.0244ZM71.2164 13.0244C72.939 13.0244 74.3032 11.9688 74.3032 10.3373C74.3032 9.29534 73.752 8.55501 72.6082 8.03403L71.2578 7.43079C70.3345 7.01949 69.9762 6.6219 69.9762 6.03238C69.9762 5.27833 70.679 4.81219 71.5334 4.81219C72.6082 4.81219 73.3248 5.41543 73.6969 6.70416H74.0552V4.6888C73.4075 4.37347 72.5807 4.15411 71.7125 4.15411C69.9211 4.15411 68.6395 5.29204 68.6395 6.759C68.6395 7.77354 69.1907 8.56871 70.3345 9.1034L71.6712 9.73406C72.6082 10.1865 72.9528 10.5429 72.9528 11.1051C72.9528 11.9277 72.1948 12.3801 71.3405 12.3801C70.238 12.3801 69.4526 11.6809 68.9151 10.2002H68.5706V12.2978C69.2734 12.7502 70.2656 13.0244 71.2164 13.0244ZM65.8008 4.25008H65.7043L62.8105 4.94929V5.29204C63.8027 5.33317 64.0645 5.53882 64.0645 6.41625V11.0502C64.0645 12.1059 63.9405 12.3389 62.9345 12.4486V12.8051H66.9032V12.4486C65.9386 12.3389 65.787 12.1059 65.787 11.0502V4.25008H65.8008ZM64.9051 2.82425C65.539 2.82425 66.0488 2.30327 66.0488 1.64519C66.0488 1.01454 65.5252 0.507268 64.9051 0.507268C64.2436 0.507268 63.7338 1.02825 63.7338 1.64519C63.7338 2.30327 64.2436 2.82425 64.9051 2.82425ZM59.3516 13.0244C60.1647 13.0244 60.9364 12.7091 61.6529 12.0785L61.4325 11.7631C60.9639 12.0373 60.5092 12.1333 60.0682 12.1333C59.3516 12.1333 58.952 11.7768 58.952 10.8446V5.04526H61.5014V4.38718H58.952V2.16617H58.3595C57.7118 3.5783 56.9952 4.16782 55.5621 4.64767V5.04526H57.2295V10.8171C57.2295 12.4075 58.1803 13.0107 59.3516 13.0107M46.9356 11.0502C46.9356 12.1059 46.7978 12.3389 45.8056 12.4486V12.8051H49.7192V12.4486C48.8235 12.3389 48.6582 12.1059 48.6582 11.0502V6.4848C49.1818 5.82673 49.8433 5.30575 50.6701 5.30575C51.5658 5.30575 52.2272 5.90899 52.2272 7.18401V11.0502C52.2272 12.1059 52.0619 12.3389 51.1662 12.4486V12.8051H55.066V12.4486C54.0738 12.3389 53.9498 12.1059 53.9498 11.0502V7.15659C53.9498 5.11381 52.8336 4.15411 51.3729 4.15411C50.2015 4.15411 49.4161 4.79848 48.7133 5.75818H48.6444V4.25008H48.5479L45.6541 4.94929V5.29204C46.6187 5.33317 46.9081 5.53882 46.9081 6.40254V11.0502H46.9356ZM40.7758 4.79848C41.892 4.79848 42.4846 5.7856 42.4846 7.10175H38.6675C38.888 5.6485 39.6734 4.79848 40.7758 4.79848ZM44.3036 10.5704C43.587 11.2833 42.7602 11.6123 41.7129 11.6123C39.9215 11.6123 38.6261 10.3373 38.6261 7.91064V7.69128H44.2209V7.32111C44.2209 5.19607 42.7602 4.15411 40.955 4.15411C38.6675 4.15411 36.9863 6.10092 36.9863 8.62355C36.9863 11.3381 38.8328 13.0244 41.0515 13.0244C42.6362 13.0244 43.711 12.2018 44.6343 10.8446L44.3312 10.5704H44.3036ZM30.9781 11.818C29.5449 11.818 28.5114 10.6252 28.5114 8.36307C28.5114 6.3477 29.5036 4.75735 31.047 4.75735C32.2459 4.75735 32.9349 5.6485 32.9349 7.18401V10.6663C32.4801 11.2696 31.86 11.8043 30.9781 11.8043M30.1237 13.0244C31.3226 13.0244 32.2045 12.4349 32.8798 11.4478H32.9624V12.9285H33.0313L35.8012 12.2293V11.8865C34.809 11.8454 34.6712 11.5986 34.6712 10.7212V0H34.6023L31.6947 0.699207V1.04196C32.6868 1.08309 32.9487 1.27502 32.9487 2.15246V4.62025H32.8935C32.3148 4.30492 31.6671 4.15411 31.0745 4.15411C28.4839 4.15411 26.7613 6.33399 26.7613 8.95259C26.7613 11.5712 28.2909 13.0244 30.1237 13.0244ZM20.0366 13.0244C21.2354 13.0244 22.0623 12.243 22.6272 11.4478H22.6961V12.9285H22.765L25.5487 12.2293V11.8865C24.6116 11.8454 24.4187 11.6535 24.4187 10.7486V4.38718H21.5248V4.72993C22.4619 4.83961 22.6961 5.14123 22.6961 6.14205V10.68C22.1725 11.3381 21.5248 11.8728 20.7669 11.8728C20.009 11.8728 19.4164 11.3518 19.4164 10.1728V4.38718H16.4812V4.72993C17.4734 4.85332 17.6801 5.14123 17.6801 6.14205V10.2413C17.6801 12.1333 18.7412 13.0244 20.0228 13.0244M13.1189 13.0244C13.9319 13.0244 14.7036 12.7091 15.4202 12.0785L15.1997 11.7631C14.7312 12.0373 14.2764 12.1333 13.8354 12.1333C13.1189 12.1333 12.7192 11.7768 12.7192 10.8446V5.04526H15.2686V4.38718H12.7192V2.16617H12.1267C11.479 3.5783 10.7624 4.16782 9.32929 4.64767V5.04526H10.9967V10.8171C10.9967 12.4075 11.9475 13.0107 13.1189 13.0107M4.09279 13.0244C6.55946 13.0244 8.36468 11.5164 8.36468 9.33647C8.36468 7.80096 7.48274 6.77271 5.87045 6.00496L3.91365 5.08639C2.63209 4.48315 2.19112 3.83878 2.19112 2.8928C2.19112 1.64519 3.21086 0.822597 4.56132 0.822597C6.09093 0.822597 7.09689 1.71374 7.6481 3.98959H7.99261V0.959696C7.19335 0.507268 6.02203 0.164519 4.72669 0.164519C2.26002 0.164519 0.523707 1.75487 0.523707 3.71539C0.523707 5.11381 1.24028 6.27915 2.83879 7.01949L4.74047 7.91064C6.14605 8.59613 6.64214 9.19937 6.64214 10.1591C6.64214 11.4341 5.56728 12.3389 4.20304 12.3389C2.64587 12.3389 1.3643 11.2833 0.647729 8.74694H0.303223V11.8591C1.41942 12.6131 2.78367 12.997 4.09279 12.997" fill="black"/>
  </g>
  <defs>
    <clipPath id="clip0_4041_1082">
      <rect width="111" height="83" fill="white"/>
    </clipPath>
  </defs>
</svg>